<svg width="155" height="54" viewBox="0 0 155 54" fill="none" xmlns="http://www.w3.org/2000/svg">
<path d="M25.6664 34.3851L41.6358 29.0984L43.0894 53.3575H45.4734L45.7844 28.6324L47.4953 20.5587C47.4953 20.5587 48.7227 16.6172 48.109 10.97C47.4953 5.32279 47.6311 6.35435 47.6311 6.35435L47.0711 5.21436H37.3289C36.6134 5.21436 36.0308 5.81513 36.0308 6.55949C36.0308 7.04596 36.2854 7.49434 36.6954 7.73171L42.8632 11.3128C42.8632 11.3128 39.5912 12.6404 35.4539 17.4934C27.8948 26.3642 24.4051 22.953 18.342 22.953C12.2789 22.953 11.1194 28.8698 13.5741 32.4128C16.0259 35.953 16.4247 35.8211 16.4247 35.8211" fill="black"/>
<path d="M48.8078 7.44125L46.1919 2.98389V6.81706" fill="black"/>
<path d="M40.7421 29.098L32.2384 31.9142C32.2384 31.9142 36.6189 31.7384 36.9357 36.2221C37.2524 40.7088 28.3755 43.0064 28.3755 43.0064L40.7393 52.9732H38.098L27.5695 46.526C25.5221 45.2717 24.4672 42.81 24.9423 40.3953L26.2206 33.907L36.6189 24.7871L40.7421 29.098Z" fill="black"/>
<path d="M28.8252 29.098L22.0183 31.9142C22.0183 31.9142 26.3988 31.7384 26.7155 36.2221C27.0323 40.7059 16.4586 43.0064 16.4586 43.0064L28.8224 52.9732H26.1811L13.0961 44.9611C11.4107 43.9295 11.0544 41.5587 12.358 40.0436L17.1571 34.4638L24.7049 24.7871L28.8252 29.098Z" fill="black"/>
<path d="M45.0178 30.4109C45.0178 30.4109 42.385 35.7123 33.1348 31.9114L39.0763 22.853L45.0178 30.4109Z" fill="black"/>
<path d="M49.7437 17.8979L51.4065 25.2478L51.4885 22.0974L49.7437 17.8979Z" fill="white"/>
<path d="M35.3551 20.5586C35.3551 20.5586 41.3872 0.625 20.8789 0.625H7.28492C0.89658 0.625 0.288574 5.99084 0.288574 12.6139V32.5915L11.0687 7.83123C11.0715 7.83123 16.1166 28.0198 35.3551 20.5586Z" fill="black"/>
<path d="M44.133 8.0803C44.3251 8.0803 44.4808 7.9189 44.4808 7.71983C44.4808 7.52075 44.3251 7.35938 44.133 7.35938C43.9409 7.35938 43.7852 7.52075 43.7852 7.71983C43.7852 7.9189 43.9409 8.0803 44.133 8.0803Z" fill="white"/>
<path d="M46.1918 5.21131L36.4438 0.625L43.7852 5.40767L46.1918 5.21131Z" fill="black"/>
<path d="M12.4343 28.2518C12.4343 28.2518 0.00830078 27.9734 0.00830078 44.6189C0.00830078 44.6189 12.4343 43.435 12.4343 28.2518Z" fill="black"/>
<path d="M6.86909 35.7334C6.86909 35.7334 9.95155 53.3753 0 53.3753V44.6188L6.86909 35.7334Z" fill="black"/>
<path d="M10.449 7.10181L3.75244 27.8003C3.75244 27.8003 18.5256 22.1326 14.3063 11.1987C10.087 0.264819 10.449 7.10181 10.449 7.10181Z" fill="black"/>
<path d="M49.7722 20.8284L51.0759 22.4343C51.0759 19.3455 51.0759 13.7833 51.0759 10.3516C51.0759 5.40485 48.313 5.21436 48.313 5.21436H47.1055V20.8284L51.0787 24.682C51.0787 24.682 51.0787 24.5414 51.0787 24.2923L49.7722 20.8284Z" fill="black"/>
<path d="M45.9655 27.7974H48.4965C49.9642 27.7974 50.9993 29.2949 50.527 30.7338L45.021 45.8115V40.05L47.8263 31.191H45.021L45.9655 27.7974Z" fill="black"/>
<path d="M70.3569 21.7365V20.3779L70.1629 20.1838H59.6824L59.4883 20.3779V21.7365L59.6824 21.9306H63.7581L63.9522 22.1247V33.5756L64.1463 33.7696H65.6989L65.893 33.5756V22.1247L66.0871 21.9306H70.1629L70.3569 21.7365Z" fill="black"/>
<path d="M80.6358 24.0655C80.6358 25.6182 79.8594 26.2004 78.1127 26.2004H74.0369L73.8428 26.0063V22.1247L74.0369 21.9306H78.1127C79.8594 21.9306 80.6358 22.5128 80.6358 24.0655ZM82.5766 24.0655C82.5766 21.3483 80.8298 20.1838 78.1127 20.1838H72.0961L71.902 20.3779V33.5756L72.0961 33.7696H73.6488L73.8428 33.5756V28.1412L74.0369 27.9472H77.1423L77.5304 28.1412L81.0239 33.5756L81.4121 33.7696H82.1884L82.3825 33.5756V32.217L79.6653 27.9472V27.7531C81.4121 27.3649 82.5766 26.2004 82.5766 24.0655Z" fill="black"/>
<path d="M94.8023 33.5756V32.217L90.1443 20.3779L89.9502 20.1838H88.2035L88.0094 20.3779L83.3514 32.217V33.5756L83.5455 33.7696H84.71L84.9041 33.5756L86.0686 30.6643L86.4567 30.4702H91.697L92.0851 30.6643L93.2496 33.5756L93.4437 33.7696H94.6082L94.8023 33.5756ZM91.3088 28.5294L91.1147 28.7235H87.039L86.8449 28.5294L88.9798 23.0951H89.1739L91.3088 28.5294Z" fill="black"/>
<path d="M107.415 33.5756V20.3779L107.221 20.1838H105.669L105.475 20.3779V30.4702H105.281L98.6817 20.3779L98.2935 20.1838H96.5468L96.3527 20.3779V33.5756L96.5468 33.7696H98.0994L98.2935 33.5756V23.4832H98.4876L105.086 33.5756L105.475 33.7696H107.221L107.415 33.5756Z" fill="black"/>
<path d="M120.04 30.0821C120.04 27.3649 118.099 26.3945 115.382 26.0063C112.665 25.6182 111.694 25.23 111.694 23.6773C111.694 22.5128 112.665 21.7365 114.412 21.7365C116.935 21.7365 117.711 22.5128 117.711 24.0655L117.905 24.2596H119.458L119.652 24.0655C119.652 21.1542 117.517 19.9897 114.606 19.9897C111.112 19.9897 109.754 21.9306 109.754 23.6773C109.754 26.0063 111.5 27.1708 114.217 27.559C116.935 27.9472 118.099 28.3353 118.099 30.0821C118.099 31.6347 116.741 32.217 114.994 32.217C112.665 32.217 111.306 31.4406 111.306 29.4998L111.112 29.3057H109.559L109.365 29.4998C109.365 32.4111 111.5 33.9637 114.8 33.9637C118.487 33.9637 120.04 32.217 120.04 30.0821Z" fill="black"/>
<path d="M130.712 21.7365V20.3779L130.518 20.1838H122.173L121.978 20.3779V33.5756L122.173 33.7696H123.725L123.919 33.5756V28.1412L124.113 27.9472H130.13L130.324 27.7531V26.3945L130.13 26.2004H124.113L123.919 26.0063V22.1247L124.113 21.9306H130.518L130.712 21.7365Z" fill="black"/>
<path d="M141.781 33.5756V32.217L141.587 32.0229H134.794L134.6 31.8288V27.9472L134.794 27.7531H141.199L141.393 27.559V26.2004L141.199 26.0063H134.794L134.6 25.8122V22.1247L134.794 21.9306H141.587L141.781 21.7365V20.3779L141.587 20.1838H132.853L132.659 20.3779V33.5756L132.853 33.7696H141.587L141.781 33.5756Z" fill="black"/>
<path d="M152.851 24.0655C152.851 25.6182 152.074 26.2004 150.327 26.2004H146.252L146.058 26.0063V22.1247L146.252 21.9306H150.327C152.074 21.9306 152.851 22.5128 152.851 24.0655ZM154.791 24.0655C154.791 21.3483 153.045 20.1838 150.327 20.1838H144.311L144.117 20.3779V33.5756L144.311 33.7696H145.864L146.058 33.5756V28.1412L146.252 27.9472H149.357L149.745 28.1412L153.239 33.5756L153.627 33.7696H154.403L154.597 33.5756V32.217L151.88 27.9472V27.7531C153.627 27.3649 154.791 26.2004 154.791 24.0655Z" fill="black"/>
<path d="M70.551 49.4934C70.551 46.7763 68.6102 45.8059 65.893 45.4177C63.1759 45.0295 62.2054 44.6414 62.2054 43.0887C62.2054 41.9242 63.1759 41.1479 64.9226 41.1479C67.4457 41.1479 68.222 41.9242 68.222 43.4769L68.4161 43.6709H69.9688L70.1629 43.4769C70.1629 40.5656 68.0279 39.4011 65.1167 39.4011C61.6232 39.4011 60.2646 41.3419 60.2646 43.0887C60.2646 45.4177 62.0114 46.5822 64.7285 46.9704C67.4457 47.3585 68.6102 47.7467 68.6102 49.4934C68.6102 51.0461 67.2516 51.6283 65.5049 51.6283C63.1759 51.6283 61.8173 50.852 61.8173 48.9112L61.6232 48.7171H60.0705L59.8764 48.9112C59.8764 51.8224 62.0114 53.3751 65.3108 53.3751C68.9984 53.3751 70.551 51.6283 70.551 49.4934Z" fill="black"/>
<path d="M83.1641 52.9869V39.7893L82.9701 39.5952H81.4174L81.2233 39.7893V45.2236L81.0292 45.4177H74.6245L74.4304 45.2236V39.7893L74.2363 39.5952H72.6837L72.4896 39.7893V52.9869L72.6837 53.181H74.2363L74.4304 52.9869V47.3585L74.6245 47.1644H81.0292L81.2233 47.3585V52.9869L81.4174 53.181H82.9701L83.1641 52.9869Z" fill="black"/>
<path d="M96.1669 52.9869V51.6283L91.509 39.7893L91.3149 39.5952H89.5681L89.374 39.7893L84.716 51.6283V52.9869L84.9101 53.181H86.0746L86.2687 52.9869L87.4332 50.0757L87.8214 49.8816H93.0616L93.4498 50.0757L94.6143 52.9869L94.8084 53.181H95.9729L96.1669 52.9869ZM92.6735 47.9408L92.4794 48.1348H88.4036L88.2095 47.9408L90.3445 42.5064H90.5385L92.6735 47.9408Z" fill="black"/>
<path d="M106.451 43.4769C106.451 45.0295 105.675 45.6118 103.928 45.6118H99.8522L99.6582 45.4177V41.536L99.8522 41.3419H103.928C105.675 41.3419 106.451 41.9242 106.451 43.4769ZM108.392 43.4769C108.392 40.7597 106.645 39.5952 103.928 39.5952H97.9114L97.7173 39.7893V52.9869L97.9114 53.181H99.4641L99.6582 52.9869V47.5526L99.8522 47.3585H102.958L103.346 47.5526L106.839 52.9869L107.227 53.181H108.004L108.198 52.9869V51.6283L105.481 47.3585V47.1644C107.227 46.7763 108.392 45.6118 108.392 43.4769Z" fill="black"/>
<path d="M121.006 43.4769C121.006 40.7597 119.259 39.5952 116.542 39.5952H110.525L110.331 39.7893V52.9869L110.525 53.181H112.078L112.272 52.9869V47.5526L112.466 47.3585H116.542C119.065 47.3585 121.006 46.194 121.006 43.4769ZM119.065 43.4769C119.065 45.0295 118.289 45.6118 116.542 45.6118H112.466L112.272 45.4177V41.536L112.466 41.3419H116.542C118.289 41.3419 119.065 41.9242 119.065 43.4769Z" fill="black"/>
</svg>
